<!DOCTYPE svg PUBLIC "-//W3C//DTD SVG 1.1//EN" "http://www.w3.org/Graphics/SVG/1.1/DTD/svg11.dtd">
<!-- Uploaded to: SVG Repo, www.svgrepo.com, Transformed by: SVG Repo Mixer Tools -->
<svg fill="#896c6c" version="1.1" id="Capa_1" xmlns="http://www.w3.org/2000/svg" xmlns:xlink="http://www.w3.org/1999/xlink" viewBox="0 0 63.971 63.971" xml:space="preserve" width="800px" height="800px" stroke="#896c6c">
<g id="SVGRepo_bgCarrier" stroke-width="0"/>
<g id="SVGRepo_tracerCarrier" stroke-linecap="round" stroke-linejoin="round"/>
<g id="SVGRepo_iconCarrier"> <g> <path d="M56.485,46.971c0-2.757-2.243-5-5-5h-2v-9c0-2.757-2.243-5-5-5h-1v-11c0-2.757-2.243-5-5-5h-3V9.383l2.39-2.412h4.195 l2.707,2.707l1.414-1.414l-1.293-1.293h2.172l2.707,2.707l1.414-1.414l-2.293-2.293l2.293-2.293l-1.414-1.414L47.07,4.971h-2.172 l1.293-1.293l-1.414-1.414L42.07,4.971h-2.263c0.953-1.21,0.889-2.973-0.22-4.092c-1.162-1.172-3.189-1.171-4.349,0V0.88 l-0.753,0.76l-0.754-0.761c-1.16-1.17-3.187-1.171-4.35,0.001c-1.108,1.118-1.172,2.882-0.219,4.092h-6.263l1.293-1.293 l-1.414-1.414l-3,3c-0.391,0.391-0.391,1.023,0,1.414l3,3l1.414-1.414l-1.293-1.293h8.195l2.391,2.411v2.588h-3 c-2.757,0-5,2.243-5,5v11h-1c-2.757,0-5,2.243-5,5v9h-2c-2.757,0-5,2.243-5,5v15h-2v2h3h42h3v-2h-2V46.971z M30.801,2.287 c0.202-0.204,0.47-0.316,0.754-0.316c0.285,0,0.553,0.112,0.754,0.315l1.464,1.478c0.376,0.38,1.045,0.38,1.421,0l1.464-1.478 c0.403-0.408,1.104-0.407,1.508,0c0.423,0.427,0.423,1.122,0,1.548L34.485,7.55l-3.683-3.716 C30.379,3.408,30.379,2.713,30.801,2.287z M30.485,13.971h8c1.654,0,3,1.346,3,3v4h-2v-2c0-0.379-0.214-0.725-0.553-0.895 c-0.34-0.17-0.744-0.133-1.047,0.095l-3.4,2.55l-3.4-2.55c-0.305-0.227-0.709-0.265-1.047-0.095 c-0.339,0.17-0.553,0.516-0.553,0.895v2h-2v-4C27.485,15.317,28.831,13.971,30.485,13.971z M37.485,20.971v2l-1.333-1 L37.485,20.971z M32.818,21.971l-1.333,1v-2L32.818,21.971z M27.485,22.971h2v2c0,0.379,0.214,0.725,0.553,0.895 c0.142,0.071,0.295,0.105,0.447,0.105c0.212,0,0.423-0.068,0.6-0.2l3.4-2.55l3.4,2.55c0.177,0.132,0.388,0.2,0.6,0.2 c0.152,0,0.306-0.035,0.447-0.105c0.339-0.17,0.553-0.516,0.553-0.895v-2h2v5h-14V22.971z M24.485,29.971h2h16h2 c1.302,0,2.402,0.838,2.816,2h-0.816c-1.654,0-3,1.346-3,3v2c0,0.551-0.449,1-1,1s-1-0.449-1-1v-2c0-1.654-1.346-3-3-3 s-3,1.346-3,3v2c0,0.551-0.449,1-1,1s-1-0.449-1-1v-2c0-1.654-1.346-3-3-3s-3,1.346-3,3v2c0,0.551-0.449,1-1,1s-1-0.449-1-1v-2 c0-1.654-1.346-3-3-3h-0.816C22.083,30.809,23.183,29.971,24.485,29.971z M21.485,33.971h1c0.551,0,1,0.449,1,1v2 c0,1.654,1.346,3,3,3s3-1.346,3-3v-2c0-0.551,0.449-1,1-1s1,0.449,1,1v2c0,1.654,1.346,3,3,3s3-1.346,3-3v-2c0-0.551,0.449-1,1-1 s1,0.449,1,1v2c0,1.654,1.346,3,3,3s3-1.346,3-3v-2c0-0.551,0.449-1,1-1h1v8h-26V33.971z M14.485,61.971v-15c0-1.654,1.346-3,3-3h3 h28h3c1.654,0,3,1.346,3,3v15H14.485z"/> <path d="M27.485,49.471c-0.19,0-0.384,0.039-0.578,0.078c0.039-0.194,0.078-0.388,0.078-0.578c0-1.369-0.607-3-3.5-3 s-3.5,1.631-3.5,3c0,0.19,0.039,0.384,0.078,0.578c-0.194-0.039-0.388-0.078-0.578-0.078c-1.369,0-3,0.607-3,3.5s1.631,3.5,3,3.5 c0.19,0,0.384-0.039,0.578-0.078c-0.039,0.194-0.078,0.388-0.078,0.578c0,1.369,0.607,3,3.5,3s3.5-1.631,3.5-3 c0-0.19-0.039-0.384-0.078-0.578c0.194,0.039,0.388,0.078,0.578,0.078c1.369,0,3-0.607,3-3.5S28.854,49.471,27.485,49.471z M23.485,47.971c1.5,0,1.5,0.441,1.5,1c0,0.631-0.752,1.713-1.5,2.56c-0.748-0.847-1.5-1.929-1.5-2.56 C21.985,48.412,21.985,47.971,23.485,47.971z M18.485,52.971c0-1.5,0.441-1.5,1-1.5c0.631,0,1.713,0.752,2.56,1.5 c-0.847,0.748-1.929,1.5-2.56,1.5C18.926,54.471,18.485,54.471,18.485,52.971z M23.485,57.971c-1.5,0-1.5-0.441-1.5-1 c0-0.631,0.752-1.713,1.5-2.56c0.748,0.847,1.5,1.929,1.5,2.56C24.985,57.529,24.985,57.971,23.485,57.971z M27.485,54.471 c-0.631,0-1.713-0.752-2.56-1.5c0.847-0.748,1.929-1.5,2.56-1.5c0.559,0,1,0,1,1.5S28.044,54.471,27.485,54.471z"/> <path d="M49.485,49.471c-0.19,0-0.384,0.039-0.578,0.078c0.039-0.194,0.078-0.388,0.078-0.578c0-1.369-0.607-3-3.5-3 s-3.5,1.631-3.5,3c0,0.19,0.039,0.384,0.078,0.578c-0.194-0.039-0.388-0.078-0.578-0.078c-1.369,0-3,0.607-3,3.5s1.631,3.5,3,3.5 c0.19,0,0.384-0.039,0.578-0.078c-0.039,0.194-0.078,0.388-0.078,0.578c0,1.369,0.607,3,3.5,3s3.5-1.631,3.5-3 c0-0.19-0.039-0.384-0.078-0.578c0.194,0.039,0.388,0.078,0.578,0.078c1.369,0,3-0.607,3-3.5S50.854,49.471,49.485,49.471z M45.485,47.971c1.5,0,1.5,0.441,1.5,1c0,0.631-0.752,1.713-1.5,2.56c-0.748-0.847-1.5-1.929-1.5-2.56 C43.985,48.412,43.985,47.971,45.485,47.971z M40.485,52.971c0-1.5,0.441-1.5,1-1.5c0.631,0,1.713,0.752,2.56,1.5 c-0.847,0.748-1.929,1.5-2.56,1.5C40.926,54.471,40.485,54.471,40.485,52.971z M45.485,57.971c-1.5,0-1.5-0.441-1.5-1 c0-0.631,0.752-1.713,1.5-2.56c0.748,0.847,1.5,1.929,1.5,2.56C46.985,57.529,46.985,57.971,45.485,57.971z M49.485,54.471 c-0.631,0-1.713-0.752-2.56-1.5c0.847-0.748,1.929-1.5,2.56-1.5c0.559,0,1,0,1,1.5S50.044,54.471,49.485,54.471z"/> <polygon points="35.192,45.85 34.485,46.557 33.778,45.85 32.364,47.264 33.071,47.971 32.364,48.678 33.778,50.092 34.485,49.385 35.192,50.092 36.606,48.678 35.899,47.971 36.606,47.264 "/> <polygon points="35.192,55.85 34.485,56.557 33.778,55.85 32.364,57.264 33.071,57.971 32.364,58.678 33.778,60.092 34.485,59.385 35.192,60.092 36.606,58.678 35.899,57.971 36.606,57.264 "/> <rect x="33.485" y="51.971" width="2" height="2"/> <rect x="8.485" y="11.971" width="2" height="4"/> <rect x="8.485" y="17.971" width="2" height="2"/> <rect x="8.485" y="21.971" width="2" height="4"/> <rect x="12.485" y="17.971" width="4" height="2"/> <rect x="2.485" y="17.971" width="4" height="2"/> <polygon points="50.485,15.971 50.485,17.971 48.485,17.971 48.485,19.971 50.485,19.971 50.485,21.971 52.485,21.971 52.485,19.971 54.485,19.971 54.485,17.971 52.485,17.971 52.485,15.971 "/> <polygon points="61.485,24.971 59.485,24.971 59.485,22.971 57.485,22.971 57.485,24.971 55.485,24.971 55.485,26.971 57.485,26.971 57.485,28.971 59.485,28.971 59.485,26.971 61.485,26.971 "/> </g> </g>
</svg>