<!DOCTYPE svg PUBLIC "-//W3C//DTD SVG 1.1//EN" "http://www.w3.org/Graphics/SVG/1.1/DTD/svg11.dtd">
<!-- Uploaded to: SVG Repo, www.svgrepo.com, Transformed by: SVG Repo Mixer Tools -->
<svg width="800px" height="800px" viewBox="0 0 64 64" version="1.1" xmlns="http://www.w3.org/2000/svg" xmlns:xlink="http://www.w3.org/1999/xlink" fill="#000000">
<g id="SVGRepo_bgCarrier" stroke-width="0"/>
<g id="SVGRepo_tracerCarrier" stroke-linecap="round" stroke-linejoin="round"/>
<g id="SVGRepo_iconCarrier"> <title>cel-cake-wedding</title> <desc>Created with Sketch.</desc> <defs> </defs> <g id="64px-Glyph" stroke="none" stroke-width="1" fill="none" fill-rule="evenodd"> <g id="cel-cake-wedding" fill="#ff7a7a"> <path d="M31,16.001 C30.712,16.001 30.438,15.877 30.248,15.66 L26.879,11.816 C25.7,10.482 25.7,8.389 26.882,7.052 C27.946,5.849 29.78,5.687 30.997,6.646 C31.517,6.232 32.163,6 32.846,6 C33.712,6 34.52,6.374 35.118,7.052 C36.3,8.387 36.301,10.481 35.12,11.817 L31.752,15.66 C31.562,15.877 31.288,16.001 31,16.001" id="Fill-174"> </path> <path d="M17,30.501 C17.553,30.501 18,30.948 18,31.501 C18,32.88 19.121,34.001 20.5,34.001 C21.879,34.001 23,32.88 23,31.501 C23,30.948 23.447,30.501 24,30.501 C24.553,30.501 25,30.948 25,31.501 C25,32.88 26.121,34.001 27.5,34.001 C28.879,34.001 30,32.88 30,31.501 C30,30.948 30.447,30.501 31,30.501 C31.553,30.501 32,30.948 32,31.501 C32,32.88 33.121,34.001 34.5,34.001 C35.879,34.001 37,32.88 37,31.501 C37,30.948 37.447,30.501 38,30.501 C38.553,30.501 39,30.948 39,31.501 C39,32.88 40.121,34.001 41.5,34.001 C42.879,34.001 44,32.88 44,31.501 C44,30.948 44.447,30.501 45,30.501 C45.553,30.501 46,30.948 46,31.501 L46,31.001 C46,28.244 43.757,26.001 41,26.001 L40,26.001 L40,23.816 C39.626,23.684 39.289,23.481 39,23.221 C38.468,23.7 37.771,24.001 37,24.001 C36.232,24.001 35.531,23.711 35,23.235 C34.469,23.711 33.768,24.001 33,24.001 C32.232,24.001 31.531,23.711 31,23.235 C30.469,23.711 29.768,24.001 29,24.001 C28.232,24.001 27.531,23.711 27,23.235 C26.469,23.711 25.768,24.001 25,24.001 C24.229,24.001 23.532,23.7 23,23.221 C22.711,23.481 22.374,23.684 22,23.817 L22,26.001 L21,26.001 C18.243,26.001 16,28.244 16,31.001 L16,31.501 C16,30.948 16.447,30.501 17,30.501" id="Fill-176"> </path> <path d="M23,20.001 C23.553,20.001 24,20.448 24,21.001 C24,21.553 24.448,22.001 25,22.001 C25.552,22.001 26,21.553 26,21.001 C26,20.448 26.447,20.001 27,20.001 C27.553,20.001 28,20.448 28,21.001 C28,21.553 28.448,22.001 29,22.001 C29.552,22.001 30,21.553 30,21.001 C30,20.448 30.447,20.001 31,20.001 C31.553,20.001 32,20.448 32,21.001 C32,21.553 32.448,22.001 33,22.001 C33.552,22.001 34,21.553 34,21.001 C34,20.448 34.447,20.001 35,20.001 C35.553,20.001 36,20.448 36,21.001 C36,21.553 36.448,22.001 37,22.001 C37.552,22.001 38,21.553 38,21.001 C38,20.448 38.447,20.001 39,20.001 C39.553,20.001 40,20.448 40,21.001 C40,18.244 37.757,16.001 35,16.001 L27,16.001 C24.243,16.001 22,18.244 22,21.001 C22,20.448 22.447,20.001 23,20.001" id="Fill-178"> </path> <path d="M57,58.001 L54,58.001 L54,52.204 C53.621,51.807 53.283,51.358 53,50.862 C51.924,52.752 50.086,54.001 48,54.001 C45.865,54.001 43.986,52.693 42.923,50.728 C41.682,52.693 39.491,54.001 37,54.001 C34.457,54.001 32.226,52.638 31,50.603 C29.774,52.638 27.543,54.001 25,54.001 C22.509,54.001 20.318,52.693 19.077,50.728 C18.014,52.693 16.135,54.001 14,54.001 C11.914,54.001 10.076,52.752 9,50.862 C8.717,51.358 8.379,51.807 8,52.204 L8,58.001 L5,58.001 C4.447,58.001 4,58.448 4,59.001 C4,59.554 4.447,60.001 5,60.001 L57,60.001 C57.553,60.001 58,59.554 58,59.001 C58,58.448 57.553,58.001 57,58.001" id="Fill-180"> </path> <path d="M9,46.001 C9.553,46.001 10,46.448 10,47.001 C10,49.758 11.794,52.001 14,52.001 C16.206,52.001 18,49.758 18,47.001 C18,46.448 18.447,46.001 19,46.001 C19.553,46.001 20,46.448 20,47.001 C20,49.758 22.243,52.001 25,52.001 C27.757,52.001 30,49.758 30,47.001 C30,46.448 30.447,46.001 31,46.001 C31.553,46.001 32,46.448 32,47.001 C32,49.758 34.243,52.001 37,52.001 C39.757,52.001 42,49.758 42,47.001 C42,46.448 42.447,46.001 43,46.001 C43.553,46.001 44,46.448 44,47.001 C44,49.758 45.794,52.001 48,52.001 C50.206,52.001 52,49.758 52,47.001 C52,46.448 52.447,46.001 53,46.001 C53.553,46.001 54,46.448 54,47.001 L54,45.001 C54,42.244 51.757,40.001 49,40.001 L46,40.001 L46,35.239 C45.616,34.981 45.288,34.655 45,34.295 C44.175,35.326 42.921,36.001 41.5,36.001 C40.088,36.001 38.825,35.348 38,34.326 C37.175,35.348 35.912,36.001 34.5,36.001 C33.088,36.001 31.825,35.348 31,34.326 C30.175,35.348 28.912,36.001 27.5,36.001 C26.088,36.001 24.825,35.348 24,34.326 C23.175,35.348 21.912,36.001 20.5,36.001 C19.079,36.001 17.825,35.326 17,34.295 C16.712,34.655 16.384,34.981 16,35.239 L16,40.001 L13,40.001 C10.243,40.001 8,42.244 8,45.001 L8,47.001 C8,46.448 8.447,46.001 9,46.001" id="Fill-182"> </path> </g> </g> </g>
</svg>